<svg id="visual" viewBox="0 0 900 600" width="900" height="600" xmlns="http://www.w3.org/2000/svg" xmlns:xlink="http://www.w3.org/1999/xlink" version="1.1"><rect x="0" y="0" width="900" height="600" fill="#252525"></rect><path d="M0 378L21.5 387.2C43 396.3 86 414.7 128.8 418.5C171.7 422.3 214.3 411.7 257.2 404.7C300 397.7 343 394.3 385.8 388.8C428.7 383.3 471.3 375.7 514.2 375C557 374.3 600 380.7 642.8 394C685.7 407.3 728.3 427.7 771.2 426.7C814 425.7 857 403.3 878.5 392.2L900 381L900 601L878.5 601C857 601 814 601 771.2 601C728.3 601 685.7 601 642.8 601C600 601 557 601 514.2 601C471.3 601 428.7 601 385.8 601C343 601 300 601 257.2 601C214.3 601 171.7 601 128.8 601C86 601 43 601 21.5 601L0 601Z" fill="#19a7ce"></path><path d="M0 418L21.5 418.5C43 419 86 420 128.8 420.5C171.7 421 214.3 421 257.2 419.3C300 417.7 343 414.3 385.8 417.7C428.7 421 471.3 431 514.2 435.3C557 439.7 600 438.3 642.8 443.3C685.7 448.3 728.3 459.7 771.2 461C814 462.3 857 453.7 878.5 449.3L900 445L900 601L878.5 601C857 601 814 601 771.2 601C728.3 601 685.7 601 642.8 601C600 601 557 601 514.2 601C471.3 601 428.7 601 385.8 601C343 601 300 601 257.2 601C214.3 601 171.7 601 128.8 601C86 601 43 601 21.5 601L0 601Z" fill="#1798c0"></path><path d="M0 506L21.5 495.7C43 485.3 86 464.7 128.8 464.3C171.7 464 214.3 484 257.2 492C300 500 343 496 385.8 491.2C428.7 486.3 471.3 480.7 514.2 476.2C557 471.7 600 468.3 642.8 467C685.7 465.7 728.3 466.3 771.2 463.7C814 461 857 455 878.5 452L900 449L900 601L878.5 601C857 601 814 601 771.2 601C728.3 601 685.7 601 642.8 601C600 601 557 601 514.2 601C471.3 601 428.7 601 385.8 601C343 601 300 601 257.2 601C214.3 601 171.7 601 128.8 601C86 601 43 601 21.5 601L0 601Z" fill="#1689b1"></path><path d="M0 494L21.5 491.8C43 489.7 86 485.3 128.8 489.8C171.7 494.3 214.3 507.7 257.2 508.3C300 509 343 497 385.8 499.3C428.7 501.7 471.3 518.3 514.2 525.5C557 532.7 600 530.3 642.8 523.5C685.7 516.7 728.3 505.3 771.2 503.8C814 502.3 857 510.7 878.5 514.8L900 519L900 601L878.5 601C857 601 814 601 771.2 601C728.3 601 685.7 601 642.8 601C600 601 557 601 514.2 601C471.3 601 428.7 601 385.8 601C343 601 300 601 257.2 601C214.3 601 171.7 601 128.8 601C86 601 43 601 21.5 601L0 601Z" fill="#157aa3"></path><path d="M0 544L21.5 540.8C43 537.7 86 531.3 128.8 533.5C171.7 535.7 214.3 546.3 257.2 551.8C300 557.3 343 557.7 385.8 557.7C428.7 557.7 471.3 557.3 514.2 554.5C557 551.7 600 546.3 642.8 541.7C685.7 537 728.3 533 771.2 530.3C814 527.7 857 526.3 878.5 525.7L900 525L900 601L878.5 601C857 601 814 601 771.2 601C728.3 601 685.7 601 642.8 601C600 601 557 601 514.2 601C471.3 601 428.7 601 385.8 601C343 601 300 601 257.2 601C214.3 601 171.7 601 128.8 601C86 601 43 601 21.5 601L0 601Z" fill="#146c94"></path></svg>